<svg width="76" height="76" viewBox="0 0 76 76" fill="none" xmlns="http://www.w3.org/2000/svg">
<path d="M63.8903 -8.81529e-07C70.5772 -8.81529e-07 76 5.42172 76 12.1108V63.8903C76 70.5772 70.5772 76 63.8903 76H12.1108C5.42284 76 0 70.5772 0 63.8903V12.1108C0 5.42172 5.42284 -8.81529e-07 12.1108 -8.81529e-07H63.8903Z" fill="#FFFC00"/>
<path d="M63.5667 51.0576C63.3427 50.3163 62.2708 49.7937 62.2708 49.7937C62.1695 49.7404 62.0789 49.6924 62.0042 49.6551C60.2177 48.7912 58.6338 47.7513 57.3006 46.5727C56.2287 45.6234 55.3115 44.5782 54.5756 43.469C53.6743 42.1144 53.253 40.9839 53.0717 40.3706C52.9704 39.9706 52.9864 39.8107 53.0717 39.6027C53.141 39.4267 53.349 39.2614 53.445 39.1814C54.0476 38.7547 55.0182 38.1255 55.6155 37.7415C56.1327 37.4055 56.5754 37.1176 56.8367 36.9363C57.6739 36.3496 58.2499 35.7524 58.5859 35.1071C59.0231 34.2752 59.0765 33.3579 58.7352 32.4567C58.2766 31.2408 57.1407 30.5155 55.6955 30.5155C55.3755 30.5155 55.0448 30.5528 54.7142 30.6222C53.8876 30.8035 53.1037 31.0968 52.4478 31.3528C52.3998 31.3741 52.3464 31.3368 52.3518 31.2834C52.4211 29.6569 52.5011 27.4705 52.3198 25.396C52.1598 23.5188 51.7705 21.935 51.1412 20.5538C50.5066 19.1672 49.68 18.1433 49.0347 17.4021C48.4215 16.6981 47.3389 15.6582 45.707 14.725C43.4139 13.4131 40.8008 12.7465 37.9424 12.7465C35.0894 12.7465 32.4816 13.4131 30.1831 14.725C28.4553 15.7115 27.3514 16.8261 26.8501 17.4021C26.2049 18.1433 25.3783 19.1672 24.7437 20.5538C24.109 21.935 23.7251 23.5135 23.5651 25.396C23.3838 27.4811 23.4584 29.4916 23.5331 31.2834C23.5331 31.3368 23.4851 31.3741 23.4318 31.3528C22.7758 31.0968 21.9919 30.8035 21.1653 30.6222C20.84 30.5528 20.5094 30.5155 20.1841 30.5155C18.7442 30.5155 17.6083 31.2408 17.1444 32.4567C16.8031 33.3579 16.8564 34.2752 17.2937 35.1071C17.635 35.7524 18.2056 36.3496 19.0428 36.9363C19.2988 37.1176 19.7468 37.4055 20.2641 37.7415C20.8453 38.1201 21.7893 38.7334 22.3972 39.1547C22.4719 39.208 22.7278 39.4 22.8078 39.6027C22.8932 39.816 22.9092 39.976 22.7972 40.4026C22.6105 41.0212 22.1892 42.1411 21.304 43.469C20.568 44.5835 19.6508 45.6234 18.5789 46.5727C17.2457 47.7513 15.6618 48.7912 13.8753 49.6551C13.79 49.6977 13.6887 49.7457 13.582 49.8097C13.582 49.8097 12.5155 50.3537 12.3128 51.0576C12.0142 52.0975 12.8088 53.0734 13.614 53.596C14.9366 54.4493 16.5471 54.9079 17.4803 55.1586C17.7416 55.2279 17.9763 55.2919 18.1896 55.3559C18.3229 55.3985 18.6589 55.5265 18.8029 55.7132C18.9842 55.9478 19.0055 56.2358 19.0695 56.5611C19.1708 57.1104 19.4001 57.7877 20.0774 58.2569C20.824 58.7689 21.7679 58.8062 22.9678 58.8542C24.221 58.9022 25.7782 58.9609 27.5647 59.5528C28.3913 59.8248 29.1432 60.2888 30.0072 60.822C31.8203 61.9366 34.0761 63.3231 37.9264 63.3231C41.7821 63.3231 44.0539 61.9313 45.8777 60.8114C46.7416 60.2834 47.4829 59.8248 48.2935 59.5582C50.08 58.9662 51.6372 58.9075 52.8904 58.8596C54.0903 58.8116 55.0342 58.7796 55.7808 58.2623C56.506 57.761 56.714 57.0144 56.81 56.4544C56.8633 56.1771 56.8953 55.9265 57.0553 55.7238C57.194 55.5479 57.5033 55.4252 57.6473 55.3772C57.8659 55.3079 58.1112 55.2439 58.3832 55.1692C59.3165 54.9186 60.4897 54.6253 61.9135 53.82C63.6307 52.8441 63.748 51.6496 63.5667 51.0576Z" fill="white"/>
<path d="M65.0489 50.4817C64.6702 49.4471 63.945 48.8978 63.1237 48.4392C62.9691 48.3486 62.8251 48.2739 62.7078 48.2206C62.4624 48.0926 62.2118 47.9699 61.9612 47.8419C59.3961 46.4821 57.3909 44.7649 56.0044 42.7331C55.5351 42.0451 55.2098 41.4265 54.9805 40.9199C54.8631 40.5786 54.8685 40.3866 54.9538 40.2106C55.0178 40.0773 55.1885 39.9387 55.2844 39.8693C55.7271 39.576 56.1804 39.2827 56.4897 39.0854C57.0389 38.7281 57.4762 38.4455 57.7535 38.2535C58.8094 37.5176 59.5454 36.7336 60.004 35.859C60.6546 34.6272 60.7346 33.2193 60.2333 31.8967C59.54 30.0623 57.8015 28.921 55.7004 28.921C55.2631 28.921 54.8205 28.969 54.3832 29.065C54.2659 29.0917 54.1539 29.1183 54.0419 29.145C54.0632 27.8971 54.0312 26.5639 53.9192 25.2627C53.5246 20.6765 51.9194 18.2713 50.2449 16.3569C49.5463 15.5569 48.3304 14.389 46.5066 13.3438C43.9628 11.8826 41.0831 11.1467 37.942 11.1467C34.8117 11.1467 31.9319 11.8826 29.3882 13.3385C27.5537 14.3837 26.3378 15.5569 25.6445 16.3515C23.97 18.266 22.3648 20.6711 21.9702 25.2574C21.8582 26.5586 21.8315 27.8918 21.8475 29.1397C21.7355 29.113 21.6182 29.0863 21.5062 29.0597C21.0689 28.9637 20.621 28.9157 20.189 28.9157C18.0879 28.9157 16.3494 30.0569 15.6561 31.8914C15.1548 33.214 15.2348 34.6218 15.8854 35.8537C16.344 36.7283 17.0853 37.5122 18.1359 38.2482C18.4185 38.4455 18.8505 38.7281 19.3998 39.0801C19.6984 39.2721 20.1304 39.5547 20.557 39.8373C20.621 39.88 20.8503 40.0507 20.9303 40.2106C21.0209 40.392 21.0209 40.5893 20.8876 40.9519C20.6636 41.4479 20.3383 42.0558 19.8797 42.7277C18.5198 44.7169 16.5734 46.4021 14.0936 47.7459C12.7764 48.4445 11.4112 48.9085 10.8352 50.4764C10.3979 51.6603 10.6859 53.0095 11.7898 54.1454C12.1524 54.5347 12.6111 54.8813 13.187 55.2013C14.5415 55.9479 15.6934 56.3158 16.6 56.5665C16.76 56.6145 17.128 56.7318 17.288 56.8758C17.6933 57.2277 17.6346 57.761 18.1732 58.5396C18.4985 59.0249 18.8718 59.3555 19.1811 59.5689C20.3063 60.3474 21.5756 60.3954 22.9194 60.4488C24.13 60.4968 25.5059 60.5501 27.0737 61.0674C27.7243 61.2807 28.4016 61.6967 29.1802 62.1766C31.0574 63.3338 33.6331 64.9124 37.9367 64.9124C42.2456 64.9124 44.8321 63.3232 46.7252 62.1659C47.5038 61.6913 48.1758 61.2754 48.805 61.0674C50.3729 60.5501 51.7488 60.4968 52.9593 60.4488C54.3032 60.3954 55.5671 60.3474 56.6976 59.5689C57.0496 59.3235 57.4976 58.9236 57.8495 58.3156C58.2335 57.6597 58.2282 57.1957 58.5908 56.8811C58.7401 56.7531 59.0654 56.6411 59.2414 56.5878C60.1533 56.3372 61.3212 55.9692 62.7024 55.2066C63.3157 54.8706 63.7903 54.5027 64.169 54.0814C64.1743 54.076 64.1796 54.0707 64.185 54.0654C65.2142 52.9455 65.4755 51.6389 65.0489 50.4817ZM61.2252 52.5348C58.8894 53.8254 57.3376 53.6867 56.1324 54.46C55.1085 55.1213 55.7111 56.5451 54.9698 57.0571C54.0526 57.6917 51.3488 57.0144 47.8558 58.1663C44.9761 59.1209 43.1362 61.8566 37.9474 61.8566C32.7479 61.8566 30.9614 59.1316 28.039 58.1663C24.546 57.0144 21.8369 57.6917 20.925 57.0571C20.1837 56.5451 20.7863 55.1213 19.7624 54.46C18.5572 53.6814 17.0053 53.8201 14.6695 52.5348C13.1817 51.7136 14.0243 51.207 14.5202 50.967C22.9781 46.8767 24.322 40.5519 24.386 40.0773C24.4606 39.512 24.5406 39.0641 23.9167 38.4828C23.3141 37.9229 20.6316 36.2643 19.8904 35.7471C18.6585 34.8885 18.1199 34.0299 18.5198 32.974C18.7972 32.2434 19.4798 31.9714 20.1997 31.9714C20.4237 31.9714 20.653 31.9981 20.8716 32.0461C22.2208 32.3394 23.5327 33.0166 24.29 33.198C24.3966 33.2246 24.4873 33.2353 24.5673 33.2353C24.9726 33.2353 25.1112 33.0326 25.0846 32.5687C24.9992 31.0915 24.7859 28.2118 25.0206 25.5187C25.3405 21.8177 26.5351 19.9832 27.9536 18.3567C28.6362 17.5781 31.8359 14.1971 37.9527 14.1971C44.0855 14.1971 47.2692 17.5781 47.9518 18.3567C49.3703 19.9779 50.5649 21.8123 50.8849 25.5187C51.1195 28.2118 50.9168 31.0915 50.8209 32.5687C50.7889 33.054 50.9382 33.2353 51.3381 33.2353C51.4181 33.2353 51.5141 33.2246 51.6154 33.198C52.3727 33.0166 53.6846 32.3394 55.0338 32.0461C55.2524 31.9981 55.4818 31.9714 55.7057 31.9714C56.4257 31.9714 57.1083 32.2487 57.3856 32.974C57.7855 34.0299 57.2416 34.8885 56.015 35.7471C55.2738 36.2643 52.5914 37.9229 51.9887 38.4828C51.3648 39.0588 51.4448 39.5067 51.5195 40.0773C51.5781 40.5519 52.9273 46.8767 61.3852 50.967C61.8652 51.207 62.7131 51.7136 61.2252 52.5348Z" fill="black"/>
</svg>
